HIERARCHY
ROOT Hips
{
	OFFSET 0.00 0.00 0.00
	CHANNELS 6 Xposition Yposition Zposition Xrotation Yrotation Zrotation
	JOINT RightUpLeg
	{
		OFFSET -3.76699 0.00000 0.00000
		CHANNELS 3 Xrotation Yrotation Zrotation
		JOINT RightLeg
		{
			OFFSET 0.00000 -18.01768 0.00000
			CHANNELS 3 Xrotation Yrotation Zrotation
			JOINT RightFoot
			{
				OFFSET 0.00000 -16.88108 0.00000
				CHANNELS 3 Xrotation Yrotation Zrotation
				JOINT RightToeBase
				{
					OFFSET 0.00000 -1.49359 5.57418
					CHANNELS 3 Xrotation Yrotation Zrotation
					End Site
					{
						OFFSET 0.00000 0.00000 2.95275
					}
				}
			}
		}
	}
	JOINT LeftUpLeg
	{
		OFFSET 3.76699 0.00000 0.00000
		CHANNELS 3 Xrotation Yrotation Zrotation
		JOINT LeftLeg
		{
			OFFSET 0.00000 -18.01768 0.00000
			CHANNELS 3 Xrotation Yrotation Zrotation
			JOINT LeftFoot
			{
				OFFSET 0.00000 -16.88108 0.00000
				CHANNELS 3 Xrotation Yrotation Zrotation
				JOINT LeftToeBase
				{
					OFFSET 0.00000 -1.49359 5.57418
					CHANNELS 3 Xrotation Yrotation Zrotation
					End Site
					{
						OFFSET 0.00000 0.00000 2.95275
					}
				}
			}
		}
	}
	JOINT Spine
	{
		OFFSET 0.00000 7.77970 0.00000
		CHANNELS 3 Xrotation Yrotation Zrotation
		JOINT RightShoulder
		{
			OFFSET 0.00000 10.94176 0.00000
			CHANNELS 3 Xrotation Yrotation Zrotation
			JOINT RightArm
			{
				OFFSET -7.70894 0.00000 0.00000
				CHANNELS 3 Xrotation Yrotation Zrotation
				JOINT RightForeArm
				{
					OFFSET -11.52135 0.00000 0.00000
					CHANNELS 3 Yrotation Zrotation Xrotation
					JOINT RightHand
					{
						OFFSET -10.17590 0.00000 0.00000
						CHANNELS 3 Xrotation Yrotation Zrotation
						End Site
						{
							OFFSET -3.93700 0.00000 0.00000
						}
						JOINT RightHandThumb1
						{
							OFFSET 0.00000 0.00000 0.00000
							CHANNELS 3 Xrotation Zrotation Yrotation
							End Site
							{
								OFFSET 0.00000 0.00000 3.93700
							}
						}
					}
				}
			}
		}
		JOINT LeftShoulder
		{
			OFFSET 0.00000 10.94176 0.00000
			CHANNELS 3 Xrotation Yrotation Zrotation
			JOINT LeftArm
			{
				OFFSET 7.70894 0.00000 0.00000
				CHANNELS 3 Xrotation Yrotation Zrotation
				JOINT LeftForeArm
				{
					OFFSET 11.52135 0.00000 0.00000
					CHANNELS 3 Yrotation Zrotation Xrotation
					JOINT LeftHand
					{
						OFFSET 10.17590 0.00000 0.00000
						CHANNELS 3 Xrotation Yrotation Zrotation
						End Site
						{
							OFFSET 3.93700 0.00000 0.00000
						}
						JOINT LeftHandThumb1
						{
							OFFSET 0.00000 0.00000 0.00000
							CHANNELS 3 Xrotation Zrotation Yrotation
							End Site
							{
								OFFSET 0.00000 0.00000 3.93700
							}
						}
					}
				}
			}
		}
		JOINT Head
		{
			OFFSET 0.00000 16.64604 0.00000
			CHANNELS 3 Xrotation Yrotation Zrotation
			End Site
			{
				OFFSET 0.00000 4.52755 0.00000
			}
		}
	}
}
MOTION
Frames: 18
Frame Time: 0.008333
 1.6099 34.4486 -7.3152 42.3075 0.0388 5.3341 -48.9136 -1.5607 -25.8073 -6.2896 -0.0000 -0.0000 17.2875 -29.7368 28.9055 14.6715 0.0000 -0.0000 -46.7344 3.5739 18.2106 -6.5431 0.0000 -0.0000 16.9403 19.5843 -33.0274 11.5623 0.0000 0.0000 76.5676 -6.6883 7.9607 0.2717 19.1168 -42.7529 -59.1034 43.8490 46.5992 29.0693 0.0000 25.0818 3.6248 9.9115 -20.2054 32.8623 0.0000 -24.3270 9.7340 -4.5223 47.4718 -64.0957 -36.9022 -45.3169 -19.2792 0.0000 67.3251 -11.4623 18.6853 32.3303 33.1476 -0.0000 26.2537 -9.1778 15.2281 -6.3178
 1.6392 34.4494 -7.3274 42.9573 0.2367 5.3746 -49.6088 -1.5141 -25.9939 -6.1816 0.0000 -0.0000 17.3224 -29.7648 28.9772 14.6198 -0.0000 -0.0000 -47.4677 3.6206 18.0360 -6.5271 0.0000 0.0000 16.9380 19.4607 -32.9769 11.6431 0.0000 -0.0000 76.7256 -6.9061 7.8818 0.0646 19.3849 -42.9777 -59.0859 43.7723 46.0158 28.8835 0.0000 25.3492 3.6793 9.9740 -20.3682 32.8623 0.0000 -24.3270 9.8695 -4.1296 47.4806 -64.1986 -37.0673 -44.2720 -19.1899 0.0000 67.5130 -11.4561 18.6676 32.3396 33.1476 -0.0000 26.2537 -9.8359 15.3175 -6.3881
 1.6685 34.4489 -7.3379 43.5923 0.4483 5.4084 -50.2708 -1.4690 -26.1884 -6.0974 -0.0000 0.0000 17.3571 -29.8383 29.0663 14.7218 -0.0000 -0.0000 -48.1553 3.5811 17.8594 -6.5172 0.0000 -0.0000 16.9688 19.4025 -33.0099 11.6054 -0.0000 0.0000 76.9012 -6.9421 7.7999 -0.1585 19.4349 -43.1512 -59.2053 43.5802 45.4955 28.8020 0.0000 25.4646 3.6652 10.0641 -20.1311 32.8623 0.0000 -24.3270 9.8533 -3.9856 47.6523 -64.3027 -37.0350 -43.4503 -19.1764 0.0000 67.4734 -11.5394 18.7785 32.3844 33.1476 -0.0000 26.2537 -10.5784 15.3150 -6.3511
 1.6940 34.4487 -7.3495 44.2654 0.6373 5.4100 -50.9369 -1.4037 -26.3375 -6.0385 -0.0000 -0.0000 17.4012 -29.9298 29.1548 14.6706 -0.0000 0.0000 -48.8330 3.4229 17.7387 -6.5264 0.0000 -0.0000 17.0150 19.4422 -33.1073 11.6033 -0.0000 0.0000 77.0208 -6.9321 7.7289 -0.3243 19.4754 -43.3523 -59.0620 43.5598 44.7296 28.6485 0.0000 25.6841 3.7428 10.1246 -20.4118 32.8623 0.0000 -24.3270 9.8364 -3.9686 47.7643 -64.2129 -36.9955 -42.5059 -19.1899 0.0000 67.7800 -11.8120 19.1338 32.5390 33.1476 -0.0000 26.2537 -11.2256 15.1913 -6.4114
 1.7209 34.4469 -7.3579 44.9123 0.8113 5.4241 -51.5735 -1.3450 -26.4892 -6.0023 0.0000 0.0000 17.4561 -30.0251 29.2344 14.6307 -0.0000 -0.0000 -49.5272 3.3632 17.6192 -6.4798 -0.0000 0.0000 16.9571 19.3795 -33.1089 11.7146 0.0000 -0.0000 77.1801 -6.9552 7.6399 -0.4626 19.4766 -43.5435 -59.0742 43.5101 44.0305 28.4529 0.0000 25.4526 3.8617 10.3418 -20.6068 32.8623 0.0000 -24.3270 9.8583 -3.8595 47.9258 -64.2690 -36.8537 -41.6132 -19.2944 0.0000 67.7750 -11.9618 19.2344 32.7451 33.1476 -0.0000 26.2537 -11.9196 15.1762 -6.3243
 1.7459 34.4468 -7.3646 45.5706 0.9814 5.4485 -52.2287 -1.3108 -26.6438 -5.9839 -0.0000 -0.0000 17.5313 -30.0766 29.3570 14.6161 -0.0000 0.0000 -50.1882 3.2549 17.4954 -6.4769 0.0000 0.0000 17.0458 19.4277 -33.3726 11.6402 0.0000 -0.0000 77.3209 -6.9371 7.5270 -0.6208 19.4676 -43.7118 -58.9807 43.3348 43.2871 28.3782 0.0000 25.5722 3.9442 10.4436 -20.8251 32.8623 0.0000 -24.3270 9.8526 -3.8728 48.1029 -64.3358 -36.6481 -40.7510 -19.4084 0.0000 67.6740 -12.0806 19.1464 33.1266 33.1476 -0.0000 26.2537 -12.5473 15.0637 -6.2491
 1.7673 34.4456 -7.3719 46.2562 1.1645 5.4639 -52.9150 -1.3075 -26.7948 -5.9770 -0.0000 -0.0000 17.5804 -30.0993 29.4242 14.6125 -0.0000 0.0000 -50.8808 3.1141 17.3738 -6.4540 0.0000 -0.0000 17.0630 19.4363 -33.3839 11.5298 -0.0000 0.0000 77.4301 -6.9818 7.4464 -0.8602 19.5662 -43.8633 -58.9114 43.1989 42.6795 28.1464 0.0000 25.7158 4.1542 10.7133 -21.3415 32.8623 0.0000 -24.3270 9.8611 -3.8050 48.2160 -64.3855 -36.5043 -39.8646 -19.5057 0.0000 67.6943 -12.2892 19.2231 33.4896 33.1476 -0.0000 26.2537 -13.1431 14.9773 -6.1848
 1.7899 34.4434 -7.3741 46.9001 1.3343 5.4978 -53.5260 -1.2736 -26.9558 -6.0079 0.0000 -0.0000 17.6429 -30.1720 29.5569 14.5805 0.0000 -0.0000 -51.5235 3.0181 17.2359 -6.4378 0.0000 -0.0000 17.0441 19.5086 -33.4922 11.6091 0.0000 0.0000 77.5683 -7.0302 7.3434 -1.0250 19.6088 -44.0213 -58.7413 43.0612 41.9220 28.0214 0.0000 25.7617 4.2749 10.7919 -21.7624 32.8623 0.0000 -24.3270 9.9575 -3.6953 48.3535 -64.5876 -36.3052 -38.9928 -19.6427 0.0000 67.6763 -12.5617 19.3193 33.9613 33.1476 -0.0000 26.2537 -13.6855 14.8156 -6.1099
 1.8095 34.4429 -7.3771 47.5627 1.4946 5.5306 -54.1845 -1.2718 -27.1066 -6.0197 -0.0000 0.0000 17.6939 -30.1559 29.6800 14.6015 -0.0000 0.0000 -52.2158 2.9678 17.1041 -6.3870 0.0000 0.0000 17.0394 19.5272 -33.5091 11.5350 -0.0000 -0.0000 77.7048 -7.1249 7.2230 -1.3035 19.7681 -44.1404 -58.5777 42.8333 41.2795 27.8813 0.0000 25.9786 4.4370 10.8743 -22.3580 32.8623 0.0000 -24.3270 9.9951 -3.4946 48.4657 -64.7303 -36.2887 -38.1161 -19.6731 0.0000 67.5254 -12.8251 19.2836 34.5805 33.1476 -0.0000 26.2537 -14.2690 14.7334 -5.9263
 1.8277 34.4421 -7.3759 48.2058 1.6478 5.5842 -54.7970 -1.2343 -27.2646 -6.0541 -0.0000 0.0000 17.7356 -30.1736 29.7775 14.5788 -0.0000 0.0000 -52.8862 2.9749 16.9635 -6.3414 -0.0000 0.0000 17.0143 19.5389 -33.5852 11.5988 0.0000 0.0000 77.8523 -7.1917 7.0816 -1.5081 19.7712 -44.2901 -58.6687 42.4313 40.7788 27.8701 0.0000 26.2646 4.5560 11.0523 -22.5710 32.8623 0.0000 -24.3270 10.0104 -3.3292 48.5939 -65.0663 -36.1682 -37.3999 -19.7268 0.0000 67.7159 -13.1127 19.2699 35.2159 33.1476 -0.0000 26.2537 -14.8562 14.5357 -5.7444
 1.8460 34.4413 -7.3765 48.8455 1.8038 5.6524 -55.3918 -1.1576 -27.4330 -6.0974 -0.0000 -0.0000 17.7904 -30.2251 29.9160 14.5923 0.0000 -0.0000 -53.5761 3.0296 16.8053 -6.2757 -0.0000 0.0000 16.9769 19.5183 -33.6039 11.5493 -0.0000 0.0000 78.0237 -7.4342 7.0150 -1.7815 19.9859 -44.5116 -58.7267 42.0942 40.3686 27.7031 0.0000 26.3436 4.7935 11.2779 -23.2091 32.8623 0.0000 -24.3270 10.0715 -2.9623 48.5432 -65.2965 -36.2209 -36.4881 -19.7499 0.0000 67.6664 -13.3183 19.2188 35.7217 33.1476 -0.0000 26.2537 -15.4265 14.5092 -5.7645
 1.8654 34.4418 -7.3707 49.4678 1.9583 5.7236 -55.9693 -1.1187 -27.6047 -6.1587 -0.0000 -0.0000 17.8374 -30.2494 30.0512 14.7015 -0.0000 0.0000 -54.2324 3.1063 16.6384 -6.2212 -0.0000 -0.0000 16.9379 19.4684 -33.5860 11.4433 -0.0000 -0.0000 78.1547 -7.4909 6.8821 -2.0370 20.1313 -44.6500 -58.4715 41.6565 39.7213 27.6833 0.0000 26.3474 4.9363 11.3882 -23.6252 32.8623 0.0000 -24.3270 10.0876 -2.8429 48.6283 -65.5813 -36.2132 -35.7362 -19.7580 0.0000 67.8417 -13.6483 19.1974 36.4438 33.1476 -0.0000 26.2537 -15.8944 14.2721 -5.6452
 1.8833 34.4411 -7.3666 50.1087 2.1303 5.7856 -56.6030 -1.1362 -27.7785 -6.2098 0.0000 -0.0000 17.8589 -30.2130 30.1331 14.6670 -0.0000 0.0000 -54.9219 3.1802 16.4706 -6.1681 -0.0000 0.0000 16.9158 19.4460 -33.6331 11.5473 0.0000 -0.0000 78.2633 -7.4309 6.7548 -2.3375 20.1121 -44.7341 -58.2454 41.2496 39.1116 27.6734 0.0000 26.2319 5.1225 11.5236 -24.1673 32.8623 0.0000 -24.3270 9.9300 -2.8879 48.7730 -66.0078 -36.1002 -35.2712 -19.7645 0.0000 68.0022 -13.7021 19.1857 36.5718 33.1476 -0.0000 26.2537 -16.4185 14.0592 -5.4820
 1.8995 34.4416 -7.3581 50.6766 2.2532 5.8635 -57.1781 -1.1344 -27.9136 -6.2380 -0.0000 -0.0000 17.8808 -30.1928 30.1622 14.6209 0.0000 0.0000 -55.5364 3.3383 16.3315 -6.1130 0.0000 -0.0000 16.8415 19.3461 -33.5491 11.5838 0.0000 0.0000 78.4551 -7.6781 6.6884 -2.4591 20.3245 -45.0445 -58.2281 40.8212 38.5823 27.4834 0.0000 26.2537 5.4179 11.7808 -24.9164 32.8623 0.0000 -24.3270 10.0980 -2.5416 48.6476 -66.3285 -36.0612 -34.3099 -19.9367 0.0000 67.8654 -13.5750 19.1402 36.3693 33.1476 -0.0000 26.2537 -16.8232 14.1023 -5.5918
 1.9187 34.4428 -7.3475 51.2544 2.4182 5.9209 -57.7827 -1.1970 -28.0816 -6.2589 -0.0000 0.0000 17.8719 -30.1057 30.1923 14.6731 0.0000 -0.0000 -56.1486 3.4180 16.1667 -6.0541 -0.0000 0.0000 16.7796 19.2494 -33.4975 11.5394 0.0000 -0.0000 78.6069 -7.6915 6.6340 -2.5668 20.3063 -45.2598 -58.0999 40.4145 37.9186 27.3659 0.0000 26.1606 5.7697 12.0566 -25.8148 32.8623 0.0000 -24.3270 10.0641 -2.4966 48.6686 -66.7424 -35.9446 -33.6974 -20.0226 0.0000 67.8356 -13.5600 19.0472 36.4662 33.1476 -0.0000 26.2537 -17.2314 13.8809 -5.6394
 1.9334 34.4441 -7.3401 51.8168 2.5416 5.9886 -58.3707 -1.1720 -28.2063 -6.2389 -0.0000 -0.0000 17.8439 -30.0879 30.2330 14.6938 -0.0000 0.0000 -56.7365 3.5114 16.0391 -6.0085 -0.0000 0.0000 16.7698 19.2647 -33.6242 11.6425 0.0000 -0.0000 78.7752 -7.8366 6.5232 -2.7808 20.5419 -45.4857 -57.7483 39.9586 37.2106 27.2673 0.0000 25.7295 5.9925 12.2166 -26.3845 32.8623 0.0000 -24.3270 10.0825 -2.2684 48.6481 -67.2081 -35.9227 -33.0388 -20.0386 0.0000 67.9191 -13.5685 19.1244 36.3775 33.1476 -0.0000 26.2537 -17.6722 13.8974 -5.5426
 1.9462 34.4460 -7.3288 52.3769 2.6607 6.0202 -58.9163 -1.1239 -28.3083 -6.2167 0.0000 0.0000 17.8283 -30.1463 30.2610 14.6930 -0.0000 -0.0000 -57.3047 3.5432 15.9455 -5.9598 -0.0000 -0.0000 16.7338 19.2094 -33.6745 11.6133 -0.0000 0.0000 78.9135 -7.8410 6.4306 -2.9719 20.6574 -45.6882 -57.4816 39.4672 36.5694 27.1658 0.0000 25.5708 6.2464 12.4717 -26.8774 32.8623 0.0000 -24.3270 10.0173 -2.1725 48.6575 -67.7366 -35.8654 -32.5949 -20.0396 0.0000 67.8547 -13.6285 19.4946 35.9990 33.1476 -0.0000 26.2537 -18.0613 13.7676 -5.5327
 1.9574 34.4482 -7.3167 52.8991 2.7416 6.0634 -59.4233 -1.0311 -28.3863 -6.1746 0.0000 -0.0000 17.8159 -30.1830 30.2838 14.7115 0.0000 -0.0000 -57.8030 3.5452 15.8831 -5.9284 -0.0000 0.0000 16.7078 19.2427 -33.8002 11.6612 0.0000 -0.0000 79.0451 -7.8804 6.3038 -3.0986 20.8227 -45.8910 -57.1335 38.9724 35.8331 27.1132 0.0000 25.5201 6.4916 12.6839 -27.3941 32.8623 0.0000 -24.3270 10.0534 -2.1036 48.6562 -68.1183 -35.8248 -31.9671 -19.9651 0.0000 67.6761 -13.7037 19.5433 36.0895 33.1476 -0.0000 26.2537 -18.3307 13.6425 -5.5403
